<svg id="svg" version="1.1" xmlns="http://www.w3.org/2000/svg" xmlns:xlink="http://www.w3.org/1999/xlink" width="400" height="318.6666666666667" viewBox="0, 0, 400,318.6666666666667"><g id="svgg"><path id="path0" d="M0.000 0.732 C 0.000 2.027,12.905 28.029,18.331 37.667 C 33.508 64.624,56.101 97.831,73.214 118.333 C 79.715 126.121,79.902 126.320,80.337 125.885 C 81.105 125.117,83.917 113.738,83.508 113.052 C 83.272 112.657,81.487 110.207,79.540 107.608 C 70.484 95.517,47.165 53.867,48.103 51.459 C 48.229 51.133,51.743 52.332,55.910 54.123 C 80.012 64.481,120.987 76.726,152.333 82.938 C 179.072 88.237,222.326 94.000,235.354 94.000 C 239.647 94.000,244.768 100.265,254.291 117.167 C 258.799 125.169,257.901 124.757,262.424 120.893 C 266.800 117.154,267.444 118.935,255.916 102.893 C 226.907 62.524,197.162 30.650,168.398 9.111 C 161.122 3.663,162.453 3.445,155.839 11.167 C 140.176 29.452,119.865 58.900,121.732 60.617 C 122.262 61.104,136.631 64.000,138.516 64.000 C 138.915 64.000,141.009 61.075,143.170 57.500 C 145.331 53.925,147.803 49.927,148.664 48.615 L 150.230 46.230 154.944 48.064 C 160.714 50.309,160.347 50.827,159.014 42.322 C 157.947 35.523,157.952 35.154,159.109 33.775 C 159.775 32.982,160.376 32.230,160.446 32.103 C 160.990 31.111,185.886 46.701,196.670 54.786 C 208.753 63.845,231.368 83.593,230.522 84.346 C 230.146 84.680,205.511 83.356,199.333 82.669 C 129.957 74.957,59.289 46.386,6.870 4.856 C 0.512 -0.181,0.000 -0.489,0.000 0.732 M62.667 66.244 C 62.667 66.640,79.515 94.463,80.986 96.496 C 81.308 96.941,89.332 93.574,89.333 92.994 C 89.333 92.624,83.333 86.326,76.000 79.000 C 68.667 71.674,62.667 65.933,62.667 66.244 M390.000 77.135 C 384.683 77.615,368.033 79.342,353.000 80.973 C 310.667 85.566,296.151 86.634,275.093 86.705 C 268.808 86.726,262.537 86.951,261.157 87.205 L 258.648 87.667 260.923 91.040 L 263.198 94.413 279.650 96.570 C 288.699 97.757,300.130 99.078,305.051 99.507 C 309.973 99.935,314.000 100.484,314.000 100.725 C 314.000 101.146,271.471 127.318,252.667 138.470 C 225.955 154.311,199.478 172.356,183.239 185.787 C 177.120 190.847,178.674 190.832,170.478 185.909 C 155.782 177.081,145.337 169.227,118.533 146.849 C 106.958 137.185,108.407 137.644,107.339 143.304 C 106.290 148.865,106.031 148.424,117.154 160.047 C 154.061 198.613,216.937 240.635,268.667 261.306 C 293.680 271.301,341.648 283.908,344.357 281.199 C 345.674 279.881,313.570 194.646,302.474 170.000 C 292.054 146.857,290.814 144.531,289.170 145.041 C 288.343 145.298,284.610 146.684,280.874 148.121 L 274.082 150.734 277.792 158.534 C 297.624 200.224,307.649 223.734,313.880 243.163 L 315.857 249.326 313.095 248.945 C 306.353 248.014,298.871 246.279,288.428 243.225 C 282.246 241.416,276.873 240.042,276.488 240.171 C 275.570 240.477,287.069 246.996,296.215 251.354 C 317.821 261.651,281.623 250.006,256.333 238.524 C 248.054 234.765,235.126 227.985,235.508 227.603 C 235.647 227.464,242.485 229.448,250.704 232.012 C 258.923 234.575,265.930 236.579,266.274 236.464 C 266.618 236.350,262.272 233.441,256.616 230.000 C 244.105 222.389,236.343 217.263,228.025 211.119 L 221.718 206.460 217.538 210.959 L 213.359 215.458 210.846 213.950 C 207.126 211.719,187.333 197.157,187.333 196.652 C 187.333 195.255,220.544 170.866,236.318 160.680 C 263.185 143.329,322.052 112.794,378.313 87.025 C 390.035 81.655,399.760 77.128,399.924 76.965 C 400.608 76.281,399.202 76.305,390.000 77.135 M107.762 85.167 C 102.852 94.982,95.744 112.428,87.867 134.000 C 71.719 178.221,64.148 251.846,70.249 305.342 C 70.706 309.354,71.212 312.736,71.374 312.858 C 73.158 314.209,81.462 318.667,82.194 318.667 C 82.722 318.667,87.660 312.442,93.166 304.833 C 118.309 270.091,135.830 248.309,153.719 229.556 C 159.374 223.629,164.000 218.620,164.000 218.426 C 164.000 218.232,161.591 215.951,158.647 213.356 L 153.293 208.639 144.813 216.101 C 133.183 226.335,108.036 251.759,97.675 263.759 C 92.970 269.208,88.536 274.267,87.821 275.000 C 86.207 276.657,86.528 251.354,88.290 238.039 C 88.845 233.843,89.190 230.301,89.056 230.167 C 88.321 229.432,82.427 240.347,79.606 247.667 L 78.065 251.667 78.033 247.571 C 77.986 241.691,79.123 231.231,81.101 219.352 C 83.417 205.445,83.202 205.829,86.222 210.215 C 91.242 217.504,91.333 217.456,91.333 207.538 C 91.333 193.860,94.444 154.877,96.722 140.000 C 98.226 130.176,103.088 116.240,111.955 96.333 L 117.301 84.333 114.484 81.853 C 110.802 78.612,111.119 78.455,107.762 85.167 M168.000 90.265 C 168.000 90.411,168.901 92.345,170.002 94.564 C 174.395 103.418,175.259 115.956,171.962 123.000 C 170.913 125.241,170.394 127.582,170.379 130.144 C 170.344 135.827,171.202 136.097,175.353 131.708 C 179.689 127.123,179.558 126.910,177.575 135.321 L 175.927 142.308 178.130 144.170 C 180.593 146.252,188.899 151.333,189.839 151.333 C 190.200 151.333,190.214 149.644,189.875 147.167 C 189.025 140.965,189.549 139.665,195.082 134.274 C 201.795 127.734,201.748 126.125,194.643 119.263 C 191.652 116.374,189.920 113.822,187.011 108.021 C 182.623 99.272,178.710 94.714,173.197 91.931 C 169.653 90.142,168.000 89.612,168.000 90.265 M195.791 103.158 C 193.635 103.327,192.690 103.671,192.914 104.205 C 193.097 104.642,193.614 106.125,194.062 107.500 L 194.878 110.000 200.272 110.013 C 214.955 110.048,230.667 114.057,230.667 117.768 C 230.667 122.115,211.836 134.077,198.792 138.016 C 195.125 139.124,194.010 139.731,194.292 140.465 C 194.498 141.003,194.667 142.051,194.667 142.795 C 194.667 148.771,236.723 128.872,241.942 120.427 C 249.796 107.720,230.366 100.450,195.791 103.158 M158.667 111.052 C 121.740 120.704,105.695 134.116,123.333 140.586 C 133.789 144.421,167.467 148.284,166.341 145.519 C 166.076 144.867,165.405 143.035,164.849 141.448 C 163.657 138.041,164.496 138.348,153.682 137.366 C 139.601 136.089,129.333 133.708,129.333 131.720 C 129.333 129.162,149.091 119.402,162.500 115.336 C 167.266 113.891,167.333 113.838,167.333 111.602 C 167.333 108.838,167.175 108.828,158.667 111.052 M117.598 193.177 C 117.145 193.479,116.715 197.604,116.478 203.920 C 116.267 209.559,116.347 213.909,116.657 213.586 C 117.118 213.107,123.333 193.892,123.333 192.948 C 123.333 192.464,118.371 192.662,117.598 193.177 M278.333 195.112 C 276.500 196.057,274.876 196.942,274.724 197.080 C 274.572 197.217,277.725 200.706,281.731 204.832 C 285.736 208.958,290.675 214.283,292.704 216.667 C 304.613 230.649,307.567 233.988,307.812 233.744 C 308.843 232.712,293.497 206.765,286.178 197.167 C 282.848 192.799,282.832 192.795,278.333 195.112 M246.097 202.960 C 242.000 207.292,241.940 207.663,245.167 208.700 C 252.064 210.916,269.927 219.540,284.243 227.566 C 292.945 232.444,293.457 232.654,291.603 230.578 C 285.336 223.560,253.297 199.333,250.283 199.333 C 249.867 199.333,247.983 200.965,246.097 202.960 " stroke="none" fill="#FFFFFF" fill-rule="evenodd"></path></g></svg>