<?xml version="1.0" encoding="iso-8859-1"?>
<!-- Generator: Adobe Illustrator 18.1.1, SVG Export Plug-In . SVG Version: 6.00 Build 0)  -->
<svg version="1.1" id="Capa_1" xmlns="http://www.w3.org/2000/svg" xmlns:xlink="http://www.w3.org/1999/xlink" x="0px" y="0px"
	 viewBox="0 0 19.851 19.851" style="enable-background:new 0 0 19.851 19.851;" xml:space="preserve">
<g>
	<path d="M18.217,10.154c0,0,1.693,0.041,1.519-2.44c0,0,0.049-0.941-0.63-1.64h0.003c0,0-0.732-1.13-2.221-0.584
		c-0.003,0-0.006,0.001-0.006,0.003c-0.909,0.236-2.409,0.872-4.851,2.371c1.6-2.418,3.357-5.476,2.636-6.28
		c0,0-0.283-1.478-2.517-1.464c0,0-1.812-0.704-2.13,1.529c0,0,0.038-1.695-2.44-1.518c0,0-0.939-0.051-1.643,0.627V0.755
		c0,0-1.128,0.734-0.581,2.222c0,0.003,0,0.004,0.002,0.007C5.593,3.89,6.223,5.38,7.709,7.798c-2.396-1.57-5.352-3.249-6.138-2.541
		c0,0-1.478,0.283-1.467,2.516c0,0-0.701,1.812,1.529,2.131c0,0-1.693-0.039-1.516,2.441c0,0-0.052,0.939,0.624,1.641l0,0
		c0,0,0.732,1.128,2.221,0.584c0.003-0.003,0.003-0.003,0.006-0.004c0.856-0.222,2.229-0.794,4.414-2.106
		c-1.504,2.33-3.001,5.054-2.325,5.806c0,0,0.285,1.478,2.517,1.465c0,0,1.812,0.704,2.132-1.529c0,0-0.04,1.693,2.441,1.517
		c0,0,0.939,0.051,1.64-0.627v0.003c0,0,1.128-0.732,0.584-2.222c-0.003-0.004-0.003-0.004-0.003-0.007
		c-0.231-0.877-0.829-2.305-2.221-4.602c2.393,1.571,5.346,3.245,6.132,2.539c0,0,1.478-0.285,1.467-2.518
		C19.746,12.285,20.449,10.474,18.217,10.154z"/>
	<g>
	</g>
	<g>
	</g>
	<g>
	</g>
	<g>
	</g>
	<g>
	</g>
	<g>
	</g>
	<g>
	</g>
	<g>
	</g>
	<g>
	</g>
	<g>
	</g>
	<g>
	</g>
	<g>
	</g>
	<g>
	</g>
	<g>
	</g>
	<g>
	</g>
</g>
<g>
</g>
<g>
</g>
<g>
</g>
<g>
</g>
<g>
</g>
<g>
</g>
<g>
</g>
<g>
</g>
<g>
</g>
<g>
</g>
<g>
</g>
<g>
</g>
<g>
</g>
<g>
</g>
<g>
</g>
</svg>
